<svg width="114" height="114" viewBox="0 0 114 114" fill="none" xmlns="http://www.w3.org/2000/svg">
<circle cx="57" cy="57" r="56.5" stroke="#CFD6F3"/>
<path fill-rule="evenodd" clip-rule="evenodd" d="M57.0001 91.2856C75.9355 91.2856 91.2858 75.9354 91.2858 56.9999C91.2858 38.0645 75.9355 22.7142 57.0001 22.7142C38.0646 22.7142 22.7143 38.0645 22.7143 56.9999C22.7143 75.9354 38.0646 91.2856 57.0001 91.2856ZM57.0001 94.7142C77.8291 94.7142 94.7143 77.829 94.7143 56.9999C94.7143 36.1709 77.8291 19.2856 57.0001 19.2856C36.171 19.2856 19.2858 36.1709 19.2858 56.9999C19.2858 77.829 36.171 94.7142 57.0001 94.7142Z" fill="#01D17F"/>
<path opacity="0.5" fill-rule="evenodd" clip-rule="evenodd" d="M57 96.4285C78.7758 96.4285 96.4285 78.7758 96.4285 57C96.4285 35.2242 78.7758 17.5714 57 17.5714C35.2242 17.5714 17.5714 35.2242 17.5714 57C17.5714 78.7758 35.2242 96.4285 57 96.4285ZM57 99.8571C80.6693 99.8571 99.8571 80.6693 99.8571 57C99.8571 33.3306 80.6693 14.1428 57 14.1428C33.3306 14.1428 14.1428 33.3306 14.1428 57C14.1428 80.6693 33.3306 99.8571 57 99.8571Z" fill="#01D17F"/>
<path opacity="0.3" fill-rule="evenodd" clip-rule="evenodd" d="M57 101.571C81.6161 101.571 101.571 81.6161 101.571 57C101.571 32.3839 81.6161 12.4286 57 12.4286C32.3839 12.4286 12.4286 32.3839 12.4286 57C12.4286 81.6161 32.3839 101.571 57 101.571ZM57 105C83.5097 105 105 83.5097 105 57C105 30.4903 83.5097 9 57 9C30.4903 9 9 30.4903 9 57C9 83.5097 30.4903 105 57 105Z" fill="#01D17F"/>
</svg>
