<svg width="96" height="96" viewBox="0 0 96 96" fill="none" xmlns="http://www.w3.org/2000/svg">
<path fill-rule="evenodd" clip-rule="evenodd" d="M48.0001 82.2856C66.9355 82.2856 82.2858 66.9354 82.2858 47.9999C82.2858 29.0645 66.9355 13.7142 48.0001 13.7142C29.0646 13.7142 13.7143 29.0645 13.7143 47.9999C13.7143 66.9354 29.0646 82.2856 48.0001 82.2856ZM48.0001 85.7142C68.8291 85.7142 85.7143 68.829 85.7143 47.9999C85.7143 27.1709 68.8291 10.2856 48.0001 10.2856C27.171 10.2856 10.2858 27.1709 10.2858 47.9999C10.2858 68.829 27.171 85.7142 48.0001 85.7142Z" fill="#01D17F"/>
<path opacity="0.5" fill-rule="evenodd" clip-rule="evenodd" d="M48 87.4285C69.7758 87.4285 87.4285 69.7758 87.4285 48C87.4285 26.2242 69.7758 8.57139 48 8.57139C26.2242 8.57139 8.57139 26.2242 8.57139 48C8.57139 69.7758 26.2242 87.4285 48 87.4285ZM48 90.8571C71.6693 90.8571 90.8571 71.6693 90.8571 48C90.8571 24.3306 71.6693 5.14282 48 5.14282C24.3306 5.14282 5.14282 24.3306 5.14282 48C5.14282 71.6693 24.3306 90.8571 48 90.8571Z" fill="#01D17F"/>
<path opacity="0.3" fill-rule="evenodd" clip-rule="evenodd" d="M48 92.5714C72.6161 92.5714 92.5714 72.6161 92.5714 48C92.5714 23.3839 72.6161 3.42857 48 3.42857C23.3839 3.42857 3.42857 23.3839 3.42857 48C3.42857 72.6161 23.3839 92.5714 48 92.5714ZM48 96C74.5097 96 96 74.5097 96 48C96 21.4903 74.5097 0 48 0C21.4903 0 0 21.4903 0 48C0 74.5097 21.4903 96 48 96Z" fill="#01D17F"/>
</svg>
