<svg width="114" height="114" viewBox="0 0 114 114" fill="none" xmlns="http://www.w3.org/2000/svg">
<path fill-rule="evenodd" clip-rule="evenodd" d="M57 74.1429C66.4678 74.1429 74.1429 66.4677 74.1429 57C74.1429 47.5323 66.4678 39.8571 57 39.8571C47.5323 39.8571 39.8572 47.5323 39.8572 57C39.8572 66.4677 47.5323 74.1429 57 74.1429ZM57 75.8571C67.4145 75.8571 75.8572 67.4145 75.8572 57C75.8572 46.5855 67.4145 38.1429 57 38.1429C46.5855 38.1429 38.1429 46.5855 38.1429 57C38.1429 67.4145 46.5855 75.8571 57 75.8571Z" fill="#FA4D56"/>
<path opacity="0.5" fill-rule="evenodd" clip-rule="evenodd" d="M57 76.7143C67.8879 76.7143 76.7143 67.8879 76.7143 57C76.7143 46.1121 67.8879 37.2857 57 37.2857C46.1121 37.2857 37.2857 46.1121 37.2857 57C37.2857 67.8879 46.1121 76.7143 57 76.7143ZM57 78.4286C68.8347 78.4286 78.4286 68.8347 78.4286 57C78.4286 45.1653 68.8347 35.5714 57 35.5714C45.1653 35.5714 35.5714 45.1653 35.5714 57C35.5714 68.8347 45.1653 78.4286 57 78.4286Z" fill="#FA4D56"/>
<path opacity="0.3" fill-rule="evenodd" clip-rule="evenodd" d="M57 79.2857C69.3081 79.2857 79.2857 69.3081 79.2857 57C79.2857 44.6919 69.3081 34.7143 57 34.7143C44.6919 34.7143 34.7143 44.6919 34.7143 57C34.7143 69.3081 44.6919 79.2857 57 79.2857ZM57 81C70.2548 81 81 70.2548 81 57C81 43.7452 70.2548 33 57 33C43.7452 33 33 43.7452 33 57C33 70.2548 43.7452 81 57 81Z" fill="#FA4D56"/>
<circle cx="57" cy="57" r="56.5" stroke="#CFD6F3"/>
</svg>
