<svg width="48" height="48" viewBox="0 0 48 48" fill="none" xmlns="http://www.w3.org/2000/svg">
<path fill-rule="evenodd" clip-rule="evenodd" d="M24 41.1428C33.4677 41.1428 41.1428 33.4677 41.1428 24C41.1428 14.5322 33.4677 6.85711 24 6.85711C14.5322 6.85711 6.85711 14.5322 6.85711 24C6.85711 33.4677 14.5322 41.1428 24 41.1428ZM24 42.8571C34.4145 42.8571 42.8571 34.4145 42.8571 24C42.8571 13.5855 34.4145 5.14282 24 5.14282C13.5855 5.14282 5.14282 13.5855 5.14282 24C5.14282 34.4145 13.5855 42.8571 24 42.8571Z" fill="#FA4D56"/>
<path opacity="0.5" fill-rule="evenodd" clip-rule="evenodd" d="M24 43.7144C34.8879 43.7144 43.7143 34.888 43.7143 24.0001C43.7143 13.1122 34.8879 4.28582 24 4.28582C13.1121 4.28582 4.2857 13.1122 4.2857 24.0001C4.2857 34.888 13.1121 43.7144 24 43.7144ZM24 45.4287C35.8347 45.4287 45.4286 35.8348 45.4286 24.0001C45.4286 12.1654 35.8347 2.57153 24 2.57153C12.1653 2.57153 2.57141 12.1654 2.57141 24.0001C2.57141 35.8348 12.1653 45.4287 24 45.4287Z" fill="#FA4D56"/>
<path opacity="0.3" fill-rule="evenodd" clip-rule="evenodd" d="M24 46.2857C36.3081 46.2857 46.2857 36.3081 46.2857 24C46.2857 11.6919 36.3081 1.71429 24 1.71429C11.6919 1.71429 1.71429 11.6919 1.71429 24C1.71429 36.3081 11.6919 46.2857 24 46.2857ZM24 48C37.2548 48 48 37.2548 48 24C48 10.7452 37.2548 0 24 0C10.7452 0 0 10.7452 0 24C0 37.2548 10.7452 48 24 48Z" fill="#FA4D56"/>
</svg>
