<svg width="114" height="114" viewBox="0 0 114 114" fill="none" xmlns="http://www.w3.org/2000/svg">
<path fill-rule="evenodd" clip-rule="evenodd" d="M57 79.8571C69.6237 79.8571 79.8572 69.6237 79.8572 57C79.8572 44.3764 69.6237 34.1429 57 34.1429C44.3764 34.1429 34.1429 44.3764 34.1429 57C34.1429 69.6237 44.3764 79.8571 57 79.8571ZM57 82.1429C70.886 82.1429 82.1429 70.886 82.1429 57C82.1429 43.114 70.886 31.8571 57 31.8571C43.114 31.8571 31.8572 43.114 31.8572 57C31.8572 70.886 43.114 82.1429 57 82.1429Z" fill="#FFC901"/>
<path opacity="0.5" fill-rule="evenodd" clip-rule="evenodd" d="M57 83.2857C71.5172 83.2857 83.2857 71.5172 83.2857 57C83.2857 42.4828 71.5172 30.7143 57 30.7143C42.4828 30.7143 30.7143 42.4828 30.7143 57C30.7143 71.5172 42.4828 83.2857 57 83.2857ZM57 85.5714C72.7796 85.5714 85.5714 72.7796 85.5714 57C85.5714 41.2204 72.7796 28.4286 57 28.4286C41.2205 28.4286 28.4286 41.2204 28.4286 57C28.4286 72.7796 41.2205 85.5714 57 85.5714Z" fill="#FFC901"/>
<path opacity="0.3" fill-rule="evenodd" clip-rule="evenodd" d="M57 86.7143C73.4107 86.7143 86.7143 73.4107 86.7143 57C86.7143 40.5893 73.4107 27.2857 57 27.2857C40.5893 27.2857 27.2857 40.5893 27.2857 57C27.2857 73.4107 40.5893 86.7143 57 86.7143ZM57 89C74.6731 89 89 74.6731 89 57C89 39.3269 74.6731 25 57 25C39.3269 25 25 39.3269 25 57C25 74.6731 39.3269 89 57 89Z" fill="#FFC901"/>
<circle cx="57" cy="57" r="56.5" stroke="#CFD6F3"/>
</svg>
