<svg width="64" height="64" viewBox="0 0 64 64" fill="none" xmlns="http://www.w3.org/2000/svg">
<path fill-rule="evenodd" clip-rule="evenodd" d="M32 54.8572C44.6237 54.8572 54.8572 44.6237 54.8572 32C54.8572 19.3764 44.6237 9.14289 32 9.14289C19.3764 9.14289 9.14289 19.3764 9.14289 32C9.14289 44.6237 19.3764 54.8572 32 54.8572ZM32 57.1429C45.8861 57.1429 57.1429 45.8861 57.1429 32C57.1429 18.114 45.8861 6.85718 32 6.85718C18.114 6.85718 6.85718 18.114 6.85718 32C6.85718 45.8861 18.114 57.1429 32 57.1429Z" fill="#FFC901"/>
<path opacity="0.5" fill-rule="evenodd" clip-rule="evenodd" d="M32 58.2856C46.5172 58.2856 58.2857 46.5171 58.2857 31.9999C58.2857 17.4827 46.5172 5.71418 32 5.71418C17.4828 5.71418 5.7143 17.4827 5.7143 31.9999C5.7143 46.5171 17.4828 58.2856 32 58.2856ZM32 60.5713C47.7796 60.5713 60.5714 47.7795 60.5714 31.9999C60.5714 16.2203 47.7796 3.42847 32 3.42847C16.2205 3.42847 3.42859 16.2203 3.42859 31.9999C3.42859 47.7795 16.2205 60.5713 32 60.5713Z" fill="#FFC901"/>
<path opacity="0.3" fill-rule="evenodd" clip-rule="evenodd" d="M32 61.7143C48.4107 61.7143 61.7143 48.4107 61.7143 32C61.7143 15.5893 48.4107 2.28571 32 2.28571C15.5893 2.28571 2.28571 15.5893 2.28571 32C2.28571 48.4107 15.5893 61.7143 32 61.7143ZM32 64C49.6731 64 64 49.6731 64 32C64 14.3269 49.6731 0 32 0C14.3269 0 0 14.3269 0 32C0 49.6731 14.3269 64 32 64Z" fill="#FFC901"/>
</svg>
